<svg width="55" height="59" viewBox="0 0 55 59" fill="none" xmlns="http://www.w3.org/2000/svg">
<mask id="mask0_314_58" style="mask-type:alpha" maskUnits="userSpaceOnUse" x="0" y="0" width="55" height="59">
<path d="M1 45.3115V14.0328L29.6721 1L41.8361 8.38525L54 15.7705V45.3115L24.459 58.3443L1 45.3115Z" fill="#4D79D9"/>
<path d="M1 14.0328V45.3115L24.459 58.3443M1 14.0328L29.6721 1L41.8361 8.38525M1 14.0328L12.7295 20.5492M24.459 58.3443L54 45.3115V15.7705M24.459 58.3443V27.0656M54 15.7705L24.459 27.0656M54 15.7705L41.8361 8.38525M24.459 27.0656L12.7295 20.5492M41.8361 8.38525L12.7295 20.5492M12.7295 20.5492V38.3607" stroke="#3342C9"/>
</mask>
<g mask="url(#mask0_314_58)">
<path d="M1 45.3115V14.0328L29.6721 1L41.8361 8.38525L54 15.7705V45.3115L24.459 58.3443L1 45.3115Z" fill="#4B5EF8"/>
<path d="M1 14.0328V45.3115L24.459 58.3443M1 14.0328L29.6721 1L41.8361 8.38525M1 14.0328L12.7295 20.5492M24.459 58.3443L54 45.3115V15.7705M24.459 58.3443V27.0656M54 15.7705L24.459 27.0656M54 15.7705L41.8361 8.38525M24.459 27.0656L12.7295 20.5492M41.8361 8.38525L12.7295 20.5492M12.7295 20.5492V38.3607" stroke="#8895FF" stroke-width="2"/>
<path d="M12.7295 20.5492L12.1116 19.1824L11.2295 19.5811V20.5492H12.7295ZM11.2295 38.3607C11.2295 39.1891 11.9011 39.8607 12.7295 39.8607C13.5579 39.8607 14.2295 39.1891 14.2295 38.3607H11.2295ZM13.3474 21.916L45.0605 7.57996L43.8247 4.84631L12.1116 19.1824L13.3474 21.916ZM11.2295 20.5492V38.3607H14.2295V20.5492H11.2295Z" fill="white"/>
</g>
</svg>
