<svg width="21" height="24" viewBox="0 0 21 24" fill="none" xmlns="http://www.w3.org/2000/svg">
<path d="M0.5 13C0.5 12.2411 1.24572 11.5 2.33333 11.5H7C8.08761 11.5 8.83333 12.2411 8.83333 13V22C8.83333 22.7589 8.08761 23.5 7 23.5H2.33333C1.24572 23.5 0.5 22.7589 0.5 22V13ZM18.6667 15.5C19.7543 15.5 20.5 16.2411 20.5 17V22C20.5 22.7589 19.7543 23.5 18.6667 23.5H14C12.9124 23.5 12.1667 22.7589 12.1667 22V17C12.1667 16.2411 12.9124 15.5 14 15.5H18.6667ZM12.1667 2C12.1667 1.24111 12.9124 0.5 14 0.5H18.6667C19.7543 0.5 20.5 1.24111 20.5 2V11C20.5 11.7589 19.7543 12.5 18.6667 12.5H14C12.9124 12.5 12.1667 11.7589 12.1667 11V2ZM7 0.5C8.08761 0.5 8.83333 1.24111 8.83333 2V7C8.83333 7.75889 8.08761 8.5 7 8.5H2.33333C1.24572 8.5 0.5 7.75889 0.5 7V2C0.5 1.24111 1.24572 0.5 2.33333 0.5H7Z" stroke="white"/>
</svg>
