<svg width="29" height="29" viewBox="0 0 29 29" fill="none" xmlns="http://www.w3.org/2000/svg">
<path d="M9 0.75H20C22.188 0.75 24.2865 1.61919 25.8336 3.16637C27.3808 4.71354 28.25 6.81196 28.25 9V20C28.25 22.188 27.3808 24.2865 25.8336 25.8336C24.2865 27.3808 22.188 28.25 20 28.25H9C6.81196 28.25 4.71354 27.3808 3.16637 25.8336C1.61919 24.2865 0.75 22.188 0.75 20L0.75 9C0.75 6.81196 1.61919 4.71354 3.16637 3.16637C4.71354 1.61919 6.81196 0.75 9 0.75ZM9 3.5C7.54131 3.5 6.14236 4.07946 5.11091 5.11091C4.07946 6.14236 3.5 7.54131 3.5 9V20C3.5 21.4587 4.07946 22.8576 5.11091 23.8891C6.14236 24.9205 7.54131 25.5 9 25.5H20C21.4587 25.5 22.8576 24.9205 23.8891 23.8891C24.9205 22.8576 25.5 21.4587 25.5 20V9C25.5 7.54131 24.9205 6.14236 23.8891 5.11091C22.8576 4.07946 21.4587 3.5 20 3.5H9ZM17.25 13.125H21.375C21.7397 13.125 22.0894 13.2699 22.3473 13.5277C22.6051 13.7856 22.75 14.1353 22.75 14.5C22.75 14.8647 22.6051 15.2144 22.3473 15.4723C22.0894 15.7301 21.7397 15.875 21.375 15.875H17.25C16.8853 15.875 16.5356 15.7301 16.2777 15.4723C16.0199 15.2144 15.875 14.8647 15.875 14.5C15.875 14.1353 16.0199 13.7856 16.2777 13.5277C16.5356 13.2699 16.8853 13.125 17.25 13.125ZM14.5 18.625H21.375C21.7397 18.625 22.0894 18.7699 22.3473 19.0277C22.6051 19.2856 22.75 19.6353 22.75 20C22.75 20.3647 22.6051 20.7144 22.3473 20.9723C22.0894 21.2301 21.7397 21.375 21.375 21.375H14.5C14.1353 21.375 13.7856 21.2301 13.5277 20.9723C13.2699 20.7144 13.125 20.3647 13.125 20C13.125 19.6353 13.2699 19.2856 13.5277 19.0277C13.7856 18.7699 14.1353 18.625 14.5 18.625ZM14.5 7.625H21.375C21.7397 7.625 22.0894 7.76987 22.3473 8.02773C22.6051 8.28559 22.75 8.63533 22.75 9C22.75 9.36467 22.6051 9.71441 22.3473 9.97227C22.0894 10.2301 21.7397 10.375 21.375 10.375H14.5C14.1353 10.375 13.7856 10.2301 13.5277 9.97227C13.2699 9.71441 13.125 9.36467 13.125 9C13.125 8.63533 13.2699 8.28559 13.5277 8.02773C13.7856 7.76987 14.1353 7.625 14.5 7.625ZM8.7635 14.8341L11.6812 11.915C11.809 11.7873 11.9606 11.6861 12.1275 11.617C12.2944 11.548 12.4733 11.5125 12.6539 11.5125C12.8345 11.5126 13.0133 11.5482 13.1801 11.6174C13.347 11.6866 13.4985 11.7879 13.6262 11.9157C13.7538 12.0434 13.8551 12.1951 13.9242 12.362C13.9932 12.5288 14.0287 12.7077 14.0287 12.8883C14.0286 13.0689 13.993 13.2477 13.9238 13.4146C13.8546 13.5814 13.7533 13.733 13.6255 13.8606L9.737 17.7491C9.6093 17.877 9.45765 17.9784 9.29073 18.0476C9.12381 18.1168 8.94488 18.1524 8.76419 18.1524C8.58349 18.1524 8.40457 18.1168 8.23764 18.0476C8.07072 17.9784 7.91908 17.877 7.79137 17.7491L5.84713 15.8062C5.59666 15.5469 5.45807 15.1996 5.4612 14.8391C5.46433 14.4786 5.60894 14.1337 5.86387 13.8787C6.11881 13.6238 6.46368 13.4792 6.8242 13.4761C7.18472 13.4729 7.53205 13.6115 7.79137 13.862L8.7635 14.8341Z" fill="#FF7076"/>
</svg>
