<svg width="23" height="30" viewBox="0 0 23 30" fill="none" xmlns="http://www.w3.org/2000/svg">
<path d="M15.7 7.825C15.7 7.825 17.2986 7 11.5 7C9.4233 7 7.39323 7.64514 5.66652 8.85383C3.9398 10.0625 2.59399 11.7805 1.79927 13.7905C1.00455 15.8005 0.796614 18.0122 1.20176 20.146C1.6069 22.2798 2.60693 24.2398 4.07538 25.7782C5.54383 27.3165 7.41476 28.3642 9.45156 28.7886C11.4884 29.2131 13.5996 28.9952 15.5182 28.1627C17.4368 27.3301 19.0767 25.9202 20.2304 24.1113C21.3842 22.3023 22 20.1756 22 18" stroke="#FD00F7" stroke-width="2" stroke-miterlimit="10" stroke-linecap="square"/>
<path d="M11 2L17 7.5L11 13" stroke="#FD00F7" stroke-width="2" stroke-miterlimit="10" stroke-linecap="square"/>
</svg>
